<svg xmlns="http://www.w3.org/2000/svg" xmlns:xlink="http://www.w3.org/1999/xlink" width="500" zoomAndPan="magnify" viewBox="0 0 375 374.999991" height="500" preserveAspectRatio="xMidYMid meet" version="1.0"><defs><clipPath id="114e67c254"><path d="M 31.703125 0 L 342.953125 0 L 342.953125 375 L 31.703125 375 Z M 31.703125 0 " clip-rule="nonzero"/></clipPath></defs><g clip-path="url(#114e67c254)"><path fill="#3459e6" d="M 181.589844 371.839844 C 181.171875 371.609375 39.203125 294.785156 31.746094 195.386719 L 31.703125 194.503906 L 31.703125 188.488281 L 42.714844 187.164062 L 55.636719 185.585938 L 74.066406 183.355469 L 74.066406 192.339844 L 74.253906 194.800781 L 74.296875 195.242188 C 74.78125 199.257812 75.578125 203.234375 76.648438 207.148438 L 58.179688 209.398438 C 72.953125 269.078125 142.253906 319.25 175.371094 340.285156 L 175.371094 295.394531 C 156.121094 281.386719 135.277344 263.628906 119.476562 244.972656 C 105.226562 228.121094 94.890625 210.242188 92.871094 193.054688 L 92.765625 191.6875 L 92.765625 100.472656 L 116.703125 100.472656 L 116.703125 191.074219 C 118.363281 202.855469 126.472656 216.234375 137.714844 229.53125 C 151.582031 245.917969 169.992188 261.738281 187.328125 274.527344 C 204.683594 261.738281 223.070312 245.917969 236.941406 229.53125 C 248.183594 216.234375 256.3125 202.855469 257.953125 191.074219 L 257.953125 100.472656 L 281.886719 100.472656 L 281.886719 191.6875 L 281.78125 193.054688 C 279.765625 210.242188 269.449219 228.121094 255.179688 244.972656 C 239.378906 263.628906 218.554688 281.386719 199.304688 295.394531 L 199.304688 340.285156 C 232.421875 319.25 301.722656 269.078125 316.496094 209.398438 L 298.003906 207.148438 C 299.078125 203.234375 299.894531 199.257812 300.359375 195.242188 L 300.421875 194.800781 L 300.589844 192.339844 L 300.589844 183.355469 L 319.019531 185.585938 L 331.941406 187.164062 L 342.953125 188.488281 L 342.953125 194.503906 L 342.910156 195.386719 C 335.449219 294.785156 193.484375 371.609375 193.085938 371.839844 L 187.328125 374.996094 Z M 74.210938 85.09375 L 342.953125 85.09375 L 342.953125 146.859375 L 342.953125 100.472656 L 319.019531 100.472656 L 319.019531 170.125 L 342.953125 173.007812 L 342.953125 181.671875 L 342.953125 61.136719 L 31.703125 61.136719 L 31.703125 85.09375 Z M 342.953125 45.777344 L 342.953125 0.00390625 L 31.703125 0.00390625 L 31.703125 45.777344 L 55.636719 45.777344 L 55.636719 23.964844 L 319.019531 23.964844 L 319.019531 45.777344 Z M 31.703125 173.007812 L 31.703125 100.472656 L 55.636719 100.472656 L 55.636719 170.125 Z M 187.328125 121.972656 C 200.671875 121.972656 211.492188 132.804688 211.492188 146.164062 C 211.492188 154.117188 207.648438 161.164062 201.742188 165.558594 L 210.0625 192.992188 L 164.589844 192.992188 L 172.933594 165.558594 C 167.007812 161.164062 163.183594 154.117188 163.183594 146.164062 C 163.183594 132.804688 173.984375 121.972656 187.328125 121.972656 Z M 187.328125 121.972656 " fill-opacity="1" fill-rule="evenodd"/></g></svg>